<svg xmlns="http://www.w3.org/2000/svg" viewBox="0 0 200 80" width="200" height="80">
  <!-- Document/file icon -->
  <rect x="10" y="10" width="45" height="55" rx="4" fill="#374151" stroke="#6b7280" stroke-width="2" />
  <path d="M10 10 L40 10 L55 25 L55 65 Q55 69 51 69 L14 69 Q10 69 10 65 Z" fill="#4b5563" />
  <path d="M40 10 L40 25 L55 25" fill="#374151" stroke="#6b7280" stroke-width="2" />

  <!-- JSON curly braces on document -->
  <text x="22" y="52" font-family="monospace" font-size="20" font-weight="bold" fill="#9ca3af">{}</text>

  <!-- Gear badge (corner) -->
  <g transform="translate(50, 3)">
    <circle cx="12" cy="16" r="12" fill="#3b82f6" stroke="#1e3a8f" stroke-width="2" />
    <path d="M12 8 L12 6 M12 24 L12 26 M6 16 L4 16 M20 16 L18 16 M7.8 11.8 L6.4 10.4 M16.2 20.2 L17.6 21.6 M7.8 20.2 L6.4 21.6 M16.2 11.8 L17.6 10.4"
          stroke="#1e3a8f" stroke-width="2" stroke-linecap="round" />
    <circle cx="12" cy="16" r="5" fill="none" stroke="white" stroke-width="2" />
  </g>

  <!-- Text -->
  <text x="80" y="38" font-family="system-ui, -apple-system, sans-serif" font-size="13" font-weight="600"
    fill="#9ca3af">manifest.json</text>
  <text x="80" y="54" font-family="system-ui, -apple-system, sans-serif" font-size="11" fill="#6b7280">generator</text>
</svg>
