<svg width="100" height="100" viewBox="0 0 128 128" xmlns="http://www.w3.org/2000/svg">
  <!-- Top face -->
  <path
    d="M62.54 4.84L10.38 31.73c-1.14.67-1.47 1.67-1.46 3.12l.1 1.81L64.09 64.9l54.94-27.79s.06-.28.06-1.26c0 0-.05-1.29-.34-1.89c-.32-.68-1-1.29-1.44-1.66c-1.17-.97-2.34-1.83-4.33-2.95C84.45 13.22 65.69 4.91 65.69 4.91c-1.21-.45-2.21-.61-3.15-.07z"
    fill="#6e99de" />
  <!-- Left face -->
  <path
    d="M9.74 96.16c3.04 2.01 8.59 4.65 14.2 7.69c13.04 7.06 29.52 15.64 37.72 19.01c1.11.46 1.77.68 2.54.72c.57.03 1.51-.35 1.51-.35s-1.53-55.19-1.62-58.34c-.09-3.08-1.38-4.1-2.52-4.84c-1.78-1.14-5.64-2.92-5.64-2.92s-13.52-6.72-27.02-13.8c-6.42-3.37-11.84-6.82-17.67-9.66c-1.07-.51-2.33.13-2.33 1.33v59.8c0 .57.35 1.05.83 1.36z"
    fill="#5172b3" />
  <!-- Right face -->
  <path
    d="M117.58 96.51L65.82 123.2c-.83.43-1.82-.17-1.82-1.11l.09-57.18c0-.55-.17-1.76-.34-2.24c-.47-1.4.55-1.96 1.01-2.19l51.34-26.44c1.36-.7 2.99.29 2.99 1.82v58.19c0 1.03-.58 1.98-1.51 2.46z"
    fill="#4b64a0" />
  <!-- Shadow on right face -->
  <path
    d="M94.46 47.59S66.09 62.1 65.63 63.33c-.46 1.22 22.26-9.7 24.92-11.07c3.01-1.55 26.65-14.19 26.65-15.58c.01-1.14-22.74 10.91-22.74 10.91z"
    fill="#212121" opacity=".5" />
  <!-- Tape on top -->
  <path
    d="M100.74 41.49c-.5-.37-54.19-28.42-54.19-28.42l-16.66 8.61l55.05 28.39l.03.03l16.11-8.25s-.03-.08-.12-.18c-.07-.06-.19-.15-.22-.18z"
    fill="#b3deff" />
  <!-- Tape draping down -->
  <path
    d="M101 41.73c-9.12 4.49-16.06 8.34-16.06 8.34c.23.23.24.53.24.68c-.03 1.16-.05 2.08-.08 3.23c-.14 5.95-.22 11.91-.42 17.86c.67-.4 1.48.48 2.09 0c.94-.74 2.94-4 3.24-4.1c.4-.13.83-.03 1.24-.05c1.8-.1 5.83-3.77 6.69-3.94c.83-.16 3.57.37 3.57.37s-.19-18.15-.26-21.2c-.02-1.08-.25-1.19-.25-1.19z"
    fill="#87aac0" />
</svg>